<svg xmlns="http://www.w3.org/2000/svg" xmlns:xlink="http://www.w3.org/1999/xlink" version="1.1" id="Layer_1" x="0px" y="0px" width="100px" height="100px" viewBox="0 0 100 100" enable-background="new 0 0 100 100" xml:space="preserve">
<g>
	<g>
		<path d="M49.906,69c-0.02,0-0.04,0-0.059,0c-0.002,0-0.005,0-0.008,0c-2.556,0-4.496-0.814-6.255-2.08    c-0.238,0.063-0.489-0.042-0.729-0.042c-2.283,0-4.14-1.927-4.14-4.222c0-2.29,1.857-4.181,4.14-4.181    c0.178,0,0.322,0.13,0.322,0.307s-0.144,0.314-0.322,0.314c-1.929,0-3.498,1.57-3.498,3.504c0,1.94,1.569,3.521,3.498,3.521    c0.236,0,0.48-0.013,0.665-0.088c0.103-0.043,0.223-0.028,0.313,0.039c1.686,1.255,3.552,1.815,6.044,1.82    c2.493-0.005,4.359-0.565,6.045-1.82c0.091-0.067,0.21-0.083,0.313-0.04c0.126,0.053,0.308,0.049,0.502,0.044l0.162-0.002    c1.929,0,3.497-1.568,3.497-3.498c0-1.928-1.568-3.497-3.497-3.497c-0.178,0-0.321-0.145-0.321-0.322s0.144-0.322,0.321-0.322    c2.284,0,4.141,1.999,4.141,4.282S59.184,67,56.899,67H56.75c-0.191,0-0.385,0.101-0.575,0.057C54.413,68.324,52.474,69,49.916,69    C49.913,69,49.909,69,49.906,69z"/>
	</g>
	<circle cx="49.877" cy="18.327" r="2.115"/>
	<g>
		<path d="M49.906,76.893c-1.021,0-1.767-0.532-2.488-1.045c-0.651-0.462-1.265-0.898-1.978-0.898c-1.324,0-2.408,0.34-3.556,0.699    c-1.322,0.414-2.822,0.885-4.906,0.885c-0.177,0-0.321-0.144-0.321-0.321s0.144-0.321,0.321-0.321    c1.986,0,3.373-0.436,4.714-0.855c1.196-0.375,2.326-0.729,3.748-0.729c0.918,0,1.646,0.518,2.35,1.018    c0.668,0.477,1.301,0.926,2.057,0.926c0.816,0,1.449-0.449,2.117-0.926c0.704-0.5,1.432-1.018,2.351-1.018    c1.418,0,2.547,0.327,3.74,0.674c1.343,0.39,2.732,0.791,4.721,0.791c0.179,0,0.322,0.145,0.322,0.321    c0,0.178-0.144,0.322-0.322,0.322c-2.081,0-3.578-0.436-4.899-0.818c-1.149-0.332-2.235-0.646-3.562-0.646    c-0.714,0-1.328,0.437-1.978,0.898C51.614,76.36,50.869,76.893,49.906,76.893z"/>
	</g>
	<g>
		<path d="M45.44,83.635c-3.262,0-4.871-2.151-6.164-3.896c-0.791-1.064-1.475-1.978-2.345-2.215    c-0.162-0.017-0.289-0.149-0.289-0.315c0-0.181,0.177-0.321,0.327-0.318c0.003-0.002,0.006,0.001,0.009,0.001l0,0    c0.121,0,10.921,0.038,12.897,2.66c1.791-2.392,10.927-2.524,12.915-2.524c0.171,0,0.312,0.134,0.321,0.303    c0.01,0.171-0.114,0.319-0.284,0.338c-0.895,0.104-1.604,1.07-2.429,2.188c-1.29,1.752-2.894,3.932-6.084,3.932    C53.509,83.788,46.239,83.635,45.44,83.635z M38.241,77.552c0.554,0.479,1.044,1.139,1.551,1.822    c1.271,1.713,2.71,3.652,5.648,3.652c0.833,0,8.047-0.006,8.874-0.006c2.865,0,4.3-1.888,5.565-3.607    c0.51-0.692,0.983-1.304,1.505-1.757c-5.647,0.136-11.172,1.103-11.172,2.755c0,0.18-0.144,0.33-0.321,0.33    c-0.178,0-0.351-0.139-0.351-0.316C49.542,78.613,43.2,77.691,38.241,77.552z"/>
	</g>
	<path d="M84.36,40.166c-1.582-0.586-3.116-0.871-4.694-0.871c-1.51,0-2.816,0.26-3.97,0.49c-0.932,0.187-1.737,0.348-2.489,0.348   c-0.63,0-1.388-0.112-2.189-0.229c-0.958-0.141-2.043-0.301-3.134-0.301c-2.172,0-3.886,0.658-5.239,2.011   c-0.19,0.19-0.241,0.479-0.129,0.723c0.104,0.229,0.334,0.375,0.583,0.375c0.017,0,0.033-0.001,0.05-0.003   c0.175-0.013,0.344-0.019,0.509-0.019c1.141,0,2.111,0.302,3.231,0.65c1.529,0.477,3.262,1.016,5.965,1.016   c3.875,0,5.899-1.014,7.525-1.828c1.243-0.623,2.226-1.116,3.757-1.116c0.312,0,0.578-0.223,0.634-0.529   C84.824,40.576,84.652,40.274,84.36,40.166z M72.854,43.713c-4.638,0-6.371-1.667-9.196-1.667c-0.181,0-0.366,0.008-0.558,0.021   c1.436-1.435,3.12-1.821,4.784-1.821c0.216,0,0.434,0.008,0.648,0.02c0.213,1.874,1.802,3.138,3.733,3.138   c1.891,0,3.45-1.404,3.717-3.404c0,0-0.002,0-0.003,0c1.098,0,2.305-0.254,3.687-0.254c1.318,0,2.79,0.303,4.47,0.927   C80.258,40.673,79.435,43.713,72.854,43.713z"/>
	<path d="M37.109,41.613c-1.353-1.353-3.066-2.011-5.238-2.011c-1.091,0-2.177,0.16-3.134,0.301   c-0.802,0.117-1.56,0.229-2.189,0.229c-0.753,0-1.559-0.161-2.49-0.348c-1.153-0.23-2.46-0.49-3.969-0.49   c-1.578,0-3.113,0.285-4.694,0.871c-0.292,0.108-0.464,0.41-0.41,0.716c0.055,0.307,0.322,0.529,0.633,0.529   c1.532,0,2.515,0.492,3.758,1.116c1.626,0.814,3.649,1.828,7.524,1.828c2.703,0,4.437-0.539,5.965-1.016   c1.121-0.349,2.09-0.65,3.23-0.65c0.166,0,0.335,0.006,0.51,0.019c0.017,0.002,0.033,0.003,0.05,0.003   c0.249,0,0.478-0.146,0.583-0.375C37.352,42.092,37.3,41.804,37.109,41.613z M36.096,42.046c-2.825,0.001-4.558,1.667-9.196,1.667   c-6.582,0-7.404-2.944-11.283-2.944c1.681-0.624,3.154-0.831,4.471-0.831c1.38,0,2.586,0.229,3.684,0.446h0   c0.267,1.816,1.827,3.212,3.717,3.212c1.931,0,3.52-1.456,3.734-3.33c0.215-0.012,0.431-0.02,0.648-0.02   c1.664,0,3.35,0.387,4.785,1.821C36.463,42.054,36.278,42.046,36.096,42.046z"/>
	<g>
		<path d="M61.453,37.484c-0.193,0-0.352-0.158-0.352-0.353c0-4.688,5.478-7.745,10.888-8.343c6.054-0.666,12.809,1.557,14.254,8.03    c0.042,0.19-0.077,0.379-0.268,0.421c-0.191,0.043-0.379-0.077-0.42-0.267c-1.351-6.048-7.75-8.118-13.488-7.482    c-5.099,0.562-10.263,3.367-10.263,7.641C61.805,37.326,61.648,37.484,61.453,37.484z"/>
	</g>
	<g>
		<path d="M58.447,31.056c-0.155,0-0.313-0.038-0.459-0.117c-0.468-0.254-0.642-0.84-0.387-1.308    c2.992-5.505,9.386-9.612,15.549-9.989c4.313-0.261,10.62,1.053,16.17,8.825c0.31,0.433,0.209,1.035-0.225,1.345    c-0.434,0.309-1.035,0.209-1.346-0.225c-3.986-5.583-8.997-8.355-14.48-8.021c-6.46,0.395-11.772,4.935-13.974,8.985    C59.12,30.873,58.79,31.056,58.447,31.056z"/>
	</g>
	<g>
		<path d="M41.612,31.056c-0.342,0-0.673-0.183-0.848-0.504c-2.202-4.051-7.514-8.591-13.973-8.985    c-5.482-0.333-10.495,2.438-14.483,8.021c-0.31,0.434-0.911,0.533-1.345,0.225c-0.434-0.31-0.534-0.912-0.225-1.345    c5.551-7.772,11.858-9.089,16.17-8.825c6.163,0.377,12.557,4.484,15.55,9.989c0.254,0.468,0.082,1.054-0.387,1.308    C41.925,31.018,41.768,31.056,41.612,31.056z"/>
	</g>
	<g>
		<path d="M38.301,37.484c-0.195,0-0.353-0.158-0.353-0.353c0-4.273-5.162-7.079-10.262-7.641    c-5.739-0.636-12.137,1.435-13.487,7.482c-0.043,0.189-0.23,0.31-0.421,0.267c-0.19-0.042-0.31-0.23-0.267-0.421    c1.446-6.474,8.2-8.696,14.253-8.03c5.411,0.598,10.889,3.654,10.889,8.343C38.653,37.326,38.495,37.484,38.301,37.484z"/>
	</g>
</g>
</svg>